<svg version="1.0" xmlns="http://www.w3.org/2000/svg" width="500.000000ptpx" height="500.000000ptpx" viewBox="0 0 500.000000 500.000000" preserveAspectRatio="xMidYMid meet" transform="rotate(0) scale(1, 1)">

<g transform="translate(0.000000,500.000000) scale(0.100000,-0.100000)" fill="#ffffff" stroke="none">
<path d="M1825 3519 c-237 -26 -440 -131 -560 -291 -68 -91 -101 -159 -132&#10;-275 -34 -130 -38 -353 -9 -478 34 -147 93 -261 188 -362 l51 -53 -22 -48&#10;c-106 -228 38 -496 290 -542 37 -7 352 -10 910 -8 l854 3 67 32 c90 42 160&#10;110 201 192 29 60 32 74 32 161 0 83 -4 103 -27 153 l-28 58 48 48 c152 152&#10;219 353 209 631 -8 251 -68 404 -211 545 -88 85 -144 135 -155 135 -3 0 -40&#10;14 -81 31 -40 17 -114 41 -164 52 -86 19 -125 21 -736 23 -355 1 -681 -2 -725&#10;-7z m1406 -271 c200 -48 320 -157 385 -348 29 -84 26 -342 -4 -424 -59 -159&#10;-161 -254 -328 -301 -46 -14 -114 -19 -315 -22 -301 -6 -317 -2 -351 75 -25&#10;56 -14 103 32 147 l31 30 232 6 c180 4 245 9 290 23 114 35 153 99 151 251 -1&#10;122 -23 193 -73 238 -71 64 -49 62 -776 62 -731 0 -719 1 -784 -64 -50 -50&#10;-66 -109 -66 -246 0 -98 3 -115 24 -153 50 -86 152 -112 439 -112 198 0 221&#10;-5 261 -56 31 -39 29 -113 -4 -152 -44 -52 -61 -54 -342 -50 -244 4 -262 6&#10;-335 30 -130 43 -198 95 -261 201 -50 83 -71 178 -71 317 2 332 168 520 492&#10;560 37 4 346 7 687 6 524 -2 630 -5 686 -18z m68 -1275 c52 -5 69 -12 97 -38&#10;29 -28 34 -39 34 -80 0 -54 -25 -96 -67 -114 -21 -8 -255 -11 -876 -9 l-849 3&#10;-34 37 c-66 73 -35 168 65 198 31 10 1542 13 1630 3z"/>
</g>
</svg>