<svg xmlns="http://www.w3.org/2000/svg" viewBox="0 12.770000457763672 78.9000015258789 36.04545211791992" data-asc="0.964" width="78.9000015258789" height="36.04545211791992"><defs/><g fill="#ffffff"><g transform="translate(0, 0)"><path d="M26.85 48.67Q24.13 49.07 22.70 48.37Q21.27 47.67 20.75 45.86Q20.23 44.05 20.23 41.10L20.23 34.15Q20.23 29.60 18.98 27.56Q17.73 25.52 14.83 25.52Q13.03 25.52 11.16 26.41Q9.30 27.30 7.99 29.19Q6.68 31.07 6.48 34.07L6.48 48.20L2.38 48.20L2.38 30.72Q2.38 28.55 1.63 26.92Q0.88 25.30 0 23.85L4.13 22.55Q4.80 23.57 5.36 24.64Q5.93 25.70 6.10 26.92Q7.23 24.70 9.94 23.35Q12.65 22.00 15.70 22.00Q20.05 22.00 22.20 24.86Q24.35 27.72 24.35 34.07L24.35 40.20Q24.35 42.10 24.43 43.32Q24.50 44.55 25.10 45.04Q25.70 45.52 27.25 45.22L26.85 48.67ZM39.95 48.32Q38.18 48.32 36.65 47.65Q35.13 46.97 34.20 45.42Q33.27 43.87 33.27 41.25L33.27 22.55L37.40 22.55L37.40 41.12Q37.40 43.75 38.33 44.50Q39.25 45.25 40.53 45.25Q41.10 45.25 42.03 45.09Q42.95 44.92 43.60 44.67L44.10 47.45Q43.18 47.82 42 48.07Q40.83 48.32 39.95 48.32M33.20 17.25L33.20 12.77L37.60 12.77L37.60 17.25L33.20 17.25ZM48.73 48.20L48.73 30.72Q48.73 28.55 47.98 26.92Q47.23 25.30 46.35 23.85L50.48 22.55Q51.15 23.57 51.70 24.61Q52.25 25.65 52.45 26.85Q53.45 24.82 55.39 23.41Q57.33 22.00 59.70 22.00Q61.25 22.00 62.06 22.15Q62.88 22.30 63.55 22.50L63.20 26.12Q62.88 26.00 62.03 25.76Q61.17 25.52 59.58 25.52Q56.85 25.52 54.84 27.56Q52.83 29.60 52.83 34.00L52.83 48.20L48.73 48.20ZM74.75 48.32Q72.98 48.32 71.45 47.65Q69.93 46.97 69 45.42Q68.08 43.87 68.08 41.25L68.08 22.55L72.20 22.55L72.20 41.12Q72.20 43.75 73.13 44.50Q74.05 45.25 75.33 45.25Q75.90 45.25 76.83 45.09Q77.75 44.92 78.40 44.67L78.90 47.45Q77.98 47.82 76.80 48.07Q75.63 48.32 74.75 48.32M68 17.25L68 12.77L72.40 12.77L72.40 17.25L68 17.25Z"/></g></g></svg>